HIERARCHY
ROOT Hips
{
  OFFSET 43.0226 92.2305 122.392
  CHANNELS 6 Xposition Yposition Zposition Zrotation Xrotation Yrotation
  JOINT RightUpLeg
  {
    OFFSET -8.9458 -8.66707 0.101652
    CHANNELS 3 Zrotation Xrotation Yrotation
    JOINT RightLeg
    {
      OFFSET 0 -44.4227 1.3727
      CHANNELS 3 Zrotation Xrotation Yrotation
      JOINT RightFoot
      {
        OFFSET 0.253549 -42.0924 -1.46059
        CHANNELS 3 Zrotation Xrotation Yrotation
        JOINT RightToes
        {
          OFFSET 0.04 -4.41509 8.4991
          CHANNELS 3 Zrotation Xrotation Yrotation
          End Site
          {
            OFFSET -0.08 -0.137448 9.77979
          }
        }
      }
    }
  }
  JOINT Spine
  {
    OFFSET 0 11.8905 0
    CHANNELS 3 Zrotation Xrotation Yrotation
    JOINT Spine1
    {
      OFFSET 0 25.6574 0.127663
      CHANNELS 3 Zrotation Xrotation Yrotation
      JOINT HEad
      {
        OFFSET 0 8.73416 0.011341
        CHANNELS 3 Zrotation Xrotation Yrotation
        End Site
        {
          OFFSET -0.29 12.7742 2.51395
        }
      }
      JOINT LeftShoulder1
      {
        OFFSET 8.99 -0.362252 -0.22
        CHANNELS 3 Zrotation Xrotation Yrotation
        JOINT LeftArm
        {
          OFFSET 10.2827 -0.00338 0.322123
          CHANNELS 3 Zrotation Xrotation Yrotation
          JOINT LeftForeArm
          {
            OFFSET 32.7669 0.099144 -1.42434
            CHANNELS 3 Zrotation Xrotation Yrotation
            JOINT LeftHand
            {
              OFFSET 27.5643 0.085362 1.02216
              CHANNELS 3 Zrotation Xrotation Yrotation
              End Site
              {
                OFFSET 16.7443 -0.6 1.50291
              }
            }
          }
        }
      }
      JOINT RightShoulder
      {
        OFFSET -8.99 -0.362252 -0.22
        CHANNELS 3 Zrotation Xrotation Yrotation
        JOINT RightArm
        {
          OFFSET -10.2827 -0.00338 0.322123
          CHANNELS 3 Zrotation Xrotation Yrotation
          JOINT RightForeArm
          {
            OFFSET -32.8971 0.099144 -1.42434
            CHANNELS 3 Zrotation Xrotation Yrotation
            JOINT RightHand
            {
              OFFSET -27.4921 0.085362 1.02216
              CHANNELS 3 Zrotation Xrotation Yrotation
              End Site
              {
                OFFSET -16.6312 -0.6 1.50291
              }
            }
          }
        }
      }
    }
  }
  JOINT LeftUpLeg
  {
    OFFSET 8.9458 -8.66707 0.101652
    CHANNELS 3 Zrotation Xrotation Yrotation
    JOINT LeftLeg
    {
      OFFSET 0 -44.4227 1.3727
      CHANNELS 3 Zrotation Xrotation Yrotation
      JOINT LeftFoot
      {
        OFFSET -0.253549 -42.0924 -1.46059
        CHANNELS 3 Zrotation Xrotation Yrotation
        JOINT LeftToes
        {
          OFFSET -0.04 -4.41509 8.4991
          CHANNELS 3 Zrotation Xrotation Yrotation
          End Site
          {
            OFFSET 0.08 -0.047448 9.77979
          }
        }
      }
    }
  }
}
MOTION
Frames:	15
Frame Time:	0.0166667
78.0534 65.6702 108.532 -10.7582 3.59433 -139.599 -24.9754 -55.3231 -31.9935 76.6673 83.2615 -96.2571 -62.4153 10.977 -1.93856 0.0462048 0.000533403 0.662642 -1.69194 17.3007 -4.36211 0.0188783 0.04828 -0.0348596 -7.79731 -9.52964 -5.91805 5.29669e-031 3.18055e-015 -9.54166e-015 -130.986 -26.815 -81.534 -130.305 47.6401 -3.76609 8.87894 34.0828 -4.54026 14.8813 17.4823 9.86506 172.655 -32.761 156.555 134.002 38.0296 1.06086 -6.66646 28.8561 2.39317 42.4352 -46.0503 12.3666 1.33677 70.5038 -21.6832 -20.6818 -4.7183 -10.1755 -1.28385e-009 1.55939e-007 -4.84822e-009 
81.732 69.7321 106.837 -12.0901 2.32545 -137.911 -19.8477 -51.0415 -29.6222 29.8974 80.569 -50.3919 -63.6929 10.3537 -2.06121 0.0462048 0.000533403 0.662642 -4.68183 15.3484 -4.35015 0.0159484 0.03907 -0.0302724 -5.2529 -1.7029 -5.74362 7.95139e-016 1.59028e-015 -0 -128.118 -26.6363 -78.9438 -129.666 47.1967 -4.24468 9.30391 29.1581 -3.48592 12.1595 19.3681 12.3087 179.801 -31.4493 161.494 134.831 37.9552 1.01834 -10.8259 29.9863 -0.346281 40.9091 -40.0754 14.5641 -0.710698 67.8369 -22.9799 -26.9026 -2.14555 -9.44334 -1.28385e-009 1.55939e-007 -4.84822e-009 
86.0422 75.4418 105.292 -12.9076 1.35147 -136.733 -18.687 -48.0408 -29.7273 9.76393 78.5621 -29.166 -44.1879 6.18044 -5.56362 0.0462048 0.000533403 0.662642 -7.02282 14.0158 -4.37979 0.01403 0.03398 -0.0265924 -2.58192 5.00617 -5.76382 7.95139e-016 0 -0 -125.34 -26.4899 -76.4929 -129.059 47.0695 -5.01687 8.60427 31.6928 -4.42688 9.91809 20.581 14.3287 -174.28 -30.6024 164.97 135.721 38.3163 0.877505 -8.55549 29.1211 1.73575 36.8467 -33.7967 16.8019 0.888309 66.097 -26.7949 -23.6756 0.379586 -6.922 -1.28385e-009 1.55939e-007 -4.84822e-009 
89.6154 80.6655 104.023 -13.2788 0.673994 -135.96 -17.3486 -44.6326 -28.2898 -3.47051 75.7825 -13.4075 -23.7128 0.286444 -6.80424 0.0462048 0.000533403 0.662642 -8.71276 13.1341 -4.44571 0.0125447 0.0300737 -0.0255595 0.101608 10.6905 -5.95564 -0 -1.19271e-015 -0 -122.712 -26.4751 -74.2789 -128.517 47.1413 -6.01319 8.81754 28.9369 -3.79123 8.15762 21.3081 15.9771 -169.448 -30.1164 167.418 136.503 38.9381 0.719584 -10.9459 29.7711 0.398305 32.7523 -27.8982 18.8491 5.02945 65.2896 -31.5256 -28.2549 4.7884 -5.03763 -1.28385e-009 1.55939e-007 -4.84822e-009 
92.5731 85.0244 102.963 -13.2413 0.26186 -135.453 -13.5329 -41.3338 -24.9496 -13.6816 71.0955 0.712316 -15.0702 -3.3426 -5.93359 0.0462048 0.000533403 0.662642 -9.75828 12.5733 -4.57863 0.011051 0.02695 -0.0258035 2.68205 15.4385 -6.27973 -3.97569e-016 5.96354e-016 -3.18055e-015 -120.236 -26.7207 -72.3301 -128.167 47.3814 -7.10341 8.08487 30.6146 -3.7427 6.92904 21.7065 17.0998 -165.714 -29.8064 169.083 137.285 39.5703 0.520141 -9.54236 29.4121 1.81644 28.2796 -23.2561 20.4171 10.2974 67.67 -36.5915 -32.8409 7.40841 -3.0826 -1.28385e-009 1.55939e-007 -4.84823e-009 
95.468 89.7287 101.923 -12.8601 0.0540113 -135.102 -9.70746 -37.6241 -20.7024 -17.3938 64.4419 8.55185 -6.19809 -6.05565 -4.82536 0.0462048 0.000533403 0.662642 -10.2184 12.2334 -4.80925 0.00939203 0.02499 -0.0256843 5.0754 19.3149 -6.68335 7.95139e-016 -3.97569e-016 -0 -118.002 -27.1442 -70.6915 -127.949 47.7002 -8.17939 8.20885 29.0266 -3.43664 5.95171 21.8204 17.8594 -162.876 -29.6825 170.032 137.949 40.2257 0.221441 -10.797 29.6181 1.08411 21.8013 -20.5608 21.9871 14.9995 72.783 -40.6097 -20.7523 6.84748 -1.22221 -1.28385e-009 1.55939e-007 -4.84821e-009 
97.8049 92.8186 101.746 -10.2695 0.505086 -134.33 -5.81134 -36.9141 -17.1405 -20.7848 59.8491 15.5683 3.5691 -8.89453 -3.02346 0.0462048 0.000533403 0.662642 -7.34077 12.2544 -6.09116 0.067679 0.11015 -0.024292 6.26804 21.2165 -6.8398 -7.95139e-016 -7.95139e-016 9.54166e-015 -117.468 -27.304 -70.5651 -127.966 48.1039 -9.07841 7.54513 29.9924 -3.28121 6.20667 20.4739 18.2195 -162.179 -30.2454 171.069 138.582 40.8625 -0.125014 -10.0523 29.3572 2.12716 19.003 -16.3679 21.3301 14.1925 71.2839 -37.1577 -35.7066 9.09017 -0.729648 -1.28385e-009 1.55939e-007 -4.84823e-009 
100.002 96.806 101.352 -6.0008 1.26861 -132.868 -0.675668 -35.2026 -13.2539 -20.8465 51.6561 17.7365 14.0558 -9.44955 -0.617993 0.0462048 0.000533403 0.662642 -2.82029 11.1236 -8.13811 0.00134946 0.01375 -0.00937867 7.37527 22.77 -7.09369 -3.97569e-016 1.98785e-015 3.18055e-015 -116.976 -27.6628 -70.3532 -128.042 48.5674 -9.78298 7.74487 29.405 -3.23192 6.71164 19.2186 18.15 -162.162 -31.099 171.518 138.968 41.4678 -0.455957 -10.6582 29.3589 1.869 14.8616 -15.9905 21.4066 15.0836 72.0681 -35.3522 -19.2134 7.09343 -0.208794 -1.28385e-009 1.55939e-007 -4.84822e-009 
101.671 99.5288 101.519 -2.38405 2.01395 -131.519 3.32099 -33.8761 -8.63541 -21.3454 44.4088 18.8823 25.4081 -9.07206 1.90664 0.0462048 0.000533403 0.662642 1.12645 9.96558 -9.80821 -0.00142036 0.00536 -0.0051886 8.16891 23.7736 -7.4098 -1.32417e-031 -7.95139e-016 -9.54166e-015 -116.921 -27.9306 -70.3241 -128.076 49.1242 -10.276 7.3402 30.0563 -3.37146 7.57924 17.8483 17.8995 -162.943 -32.1898 171.84 139.074 41.979 -0.65338 -10.1509 29.2448 2.69279 11.9966 -12.7588 19.9995 10.5257 66.9311 -27.6546 -17.819 5.91769 -0.390553 -1.28385e-009 1.55939e-007 -4.84822e-009 
102.879 101.777 101.803 0.586792 2.64866 -130.183 5.75119 -31.6288 -3.66702 -20.479 36.6681 17.698 36.656 -6.99866 3.94097 0.0462048 0.000533403 0.662642 4.50122 8.84137 -11.1444 -0.00142066 0.00381806 -0.00277857 8.72156 24.3396 -7.8125 -7.95139e-016 7.95139e-016 9.54166e-015 -117.257 -28.0694 -70.4101 -128.039 49.7052 -10.5855 7.61909 29.6664 -3.67011 8.54666 16.5088 17.4989 -164.322 -33.3665 171.992 138.748 42.3468 -0.564813 -10.3438 29.3212 2.61832 8.75516 -9.18244 18.5925 7.21684 60.4703 -20.8861 -8.11951 3.33405 -0.509595 -1.28385e-009 1.55939e-007 -4.84821e-009 
104.248 103.472 102.282 2.92207 3.12151 -128.684 9.35542 -31.0856 2.56147 -19.3948 33.065 16.4227 33.0718 -5.9137 3.67844 0.0462048 0.000533403 0.662642 7.30385 7.81994 -12.2485 -0.00142082 0.00334635 -0.000494875 9.05889 24.5006 -8.30812 2.64834e-031 -2.38542e-015 6.36111e-015 -118.181 -27.7805 -70.7954 -127.448 50.2361 -10.7123 7.63166 30.323 -4.03096 13.7132 10.8488 5.71775 -176.116 -41.3457 160.438 138.704 42.4806 -0.0953326 -9.75737 29.0112 3.21752 6.56495 -5.33858 17.3881 5.97147 51.6814 -16.8822 -2.58039 1.70195 -0.261998 -1.28386e-009 1.55939e-007 -4.84822e-009 
105.519 104.641 102.82 4.93697 3.53881 -126.823 12.5549 -30.4727 9.09552 -18.5335 30.1146 15.1602 29.3225 -6.14443 3.46956 0.0462048 0.000533403 0.662642 9.8523 6.77336 -13.1521 -0.00142094 0.00322106 0.0017277 9.3636 24.5537 -8.95757 1.59028e-015 2.38542e-015 -1.59028e-014 -119.243 -27.2856 -71.1816 -126.563 50.6828 -10.8715 7.73043 30.6398 -4.41113 16.9312 6.35233 -1.58091 173.816 -45.5496 151.588 138.725 42.4313 0.769144 -9.29919 28.7574 3.50093 5.02206 -1.56171 16.4574 5.62202 42.7038 -14.2906 2.1342 0.311757 -0.0380082 -1.28385e-009 1.55939e-007 -4.84822e-009 
106.803 105.376 103.32 6.66178 3.91598 -124.775 15.4728 -29.7804 15.566 -18.3611 27.536 14.1906 25.4285 -6.63864 3.12893 0.0462048 0.000533403 0.662642 12.1269 5.72499 -13.8496 -0.001421 0.00231 0.00390138 9.67718 24.5136 -9.77233 8.82781e-032 -7.95139e-016 6.36111e-015 -120.331 -26.7481 -71.538 -125.629 51.0237 -11.1051 7.90216 30.7466 -4.72141 18.9986 3.22154 -6.08575 164.32 -47.482 143.943 137.317 42.9884 2.29044 -8.87865 28.4962 3.53517 3.93612 2.09923 15.6414 5.65529 33.7941 -12.3918 5.80393 -1.166 0.161567 -1.28385e-009 1.55939e-007 -4.84822e-009 
108.224 105.766 103.757 8.15148 4.27989 -122.746 18.0646 -29.067 21.7916 -18.7465 25.408 13.3381 21.3924 -7.04347 2.72619 0.0462048 0.000533403 0.662642 14.1355 4.69599 -14.3418 -0.00142079 -0.00054999 0.00598136 10.0274 24.3843 -10.7542 8.82781e-032 -1.59028e-015 3.18055e-015 -122.276 -27.2872 -72.4025 -124.434 51.2935 -11.4301 7.06645 29.6789 -5.10652 20.4142 1.36553 -8.79384 157.424 -47.8788 139.14 135.741 43.292 4.01036 -8.48182 28.1651 3.39461 3.39961 5.2758 14.6389 5.83291 25.5397 -10.6996 8.33345 -2.83894 0.448461 -1.28386e-009 1.55939e-007 -4.84821e-009 
109.638 105.409 104.174 8.82647 4.82788 -120.513 19.6321 -27.8777 27.4477 -18.7096 23.7399 11.4105 16.9602 -7.47756 2.24377 0.0462048 0.000533403 0.662642 15.9278 4.33109 -14.626 -0.00142954 0.01403 0.0354912 10.4269 24.3005 -11.7895 -1.59028e-015 -1.59028e-015 -0 -124.206 -27.267 -72.7656 -121.397 51.9113 -12.3266 5.62297 30.8032 -0.491863 21.49 0.419507 -10.367 151.758 -47.3894 135.353 133.444 43.4441 4.09226 -8.99366 28.7307 4.08278 3.81125 8.08531 12.9841 5.12502 18.9578 -7.80618 8.32374 -5.35208 0.815091 -1.28385e-009 1.55939e-007 -4.84822e-009 
